<svg width="0" height="0" class="hidden">
  <symbol xmlns="http://www.w3.org/2000/svg" viewBox="0 0 132 38" id="1">
    <path d="M1.23223 17.2322C0.255922 18.2085 0.255922 19.7915 1.23223 20.7678L17.1421 36.6777C18.1184 37.654 19.7014 37.654 20.6777 36.6777C21.654 35.7014 21.654 34.1184 20.6777 33.1421L6.53553 19L20.6777 4.85786C21.654 3.88155 21.654 2.29864 20.6777 1.32233C19.7014 0.34602 18.1184 0.34602 17.1421 1.32233L1.23223 17.2322ZM130.768 20.7678C131.744 19.7915 131.744 18.2085 130.768 17.2322L114.858 1.32233C113.882 0.34602 112.299 0.34602 111.322 1.32233C110.346 2.29864 110.346 3.88155 111.322 4.85786L125.464 19L111.322 33.1421C110.346 34.1184 110.346 35.7014 111.322 36.6777C112.299 37.654 113.882 37.654 114.858 36.6777L130.768 20.7678ZM3 21.5H129V16.5H3V21.5Z"></path>
  </symbol>
</svg>